<?xml version="1.0" encoding="iso-8859-1"?>
<!-- Generator: Adobe Illustrator 19.0.0, SVG Export Plug-In . SVG Version: 6.00 Build 0)  -->
<svg version="1.1" id="Capa_1" xmlns="http://www.w3.org/2000/svg" xmlns:xlink="http://www.w3.org/1999/xlink" x="0px" y="0px"
	 viewBox="0 0 512 512" style="enable-background:new 0 0 512 512;" xml:space="preserve">
<path style="fill:#FEDB41;" d="M467.692,123.077H44.308C19.876,123.077,0,142.953,0,167.385v256
	c0,24.431,19.876,44.308,44.308,44.308h423.385c24.431,0,44.308-19.876,44.308-44.308v-256
	C512,142.953,492.124,123.077,467.692,123.077z"/>
<path style="fill:#EFBE25;" d="M467.692,123.077H256v344.615h211.692c24.431,0,44.308-19.876,44.308-44.308v-256
	C512,142.953,492.124,123.077,467.692,123.077z"/>
<path style="fill:#FEA832;" d="M374.166,152.618c-5.418,0-10.634-2.992-13.221-8.167l-31.22-62.441
	c-2.519-5.035-7.581-8.163-13.211-8.163H195.487c-5.63,0-10.692,3.128-13.211,8.164l-31.22,62.44
	c-3.648,7.296-12.52,10.253-19.815,6.605c-7.296-3.648-10.253-12.519-6.605-19.815l31.22-62.441
	c7.555-15.106,22.74-24.491,39.631-24.491h121.027c16.891,0,32.076,9.385,39.631,24.492l31.22,62.441
	c3.648,7.296,0.69,16.166-6.605,19.815C378.639,152.116,376.385,152.618,374.166,152.618z"/>
<path style="fill:#E88F23;" d="M356.143,68.8c-7.554-15.107-22.739-24.492-39.63-24.492H256v29.538h60.513
	c5.63,0,10.692,3.128,13.211,8.164l31.22,62.441c2.588,5.176,7.803,8.167,13.221,8.167c2.219,0,4.473-0.502,6.593-1.563
	c7.296-3.648,10.253-12.519,6.605-19.815L356.143,68.8z"/>
<path style="fill:#FEA832;" d="M285.538,280.615h-59.077c-8.157,0-14.769,6.613-14.769,14.769v49.231
	c0,13.573,11.042,24.615,24.615,24.615h39.385c13.573,0,24.615-11.042,24.615-24.615v-49.231
	C300.308,287.228,293.695,280.615,285.538,280.615z"/>
<g>
	<path style="fill:#E88F23;" d="M285.538,280.615H256v88.615h19.692c13.573,0,24.615-11.042,24.615-24.615v-49.231
		C300.308,287.228,293.695,280.615,285.538,280.615z"/>
	<path style="fill:#E88F23;" d="M413.538,238.038c-8.157,0-14.769,6.613-14.769,14.769v214.885h29.538V252.807
		C428.308,244.65,421.695,238.038,413.538,238.038z"/>
</g>
<path style="fill:#FEA832;" d="M98.462,238.038c-8.157,0-14.769,6.613-14.769,14.769v214.885h29.538V252.807
	C113.231,244.65,106.618,238.038,98.462,238.038z"/>
<path style="fill:#984B0E;" d="M467.692,123.077H44.308C19.876,123.077,0,142.953,0,167.385v49.231c0,5.891,3.5,11.218,8.907,13.556
	l182.154,78.769c1.85,0.8,3.846,1.213,5.862,1.213h118.154c2.016,0,4.011-0.413,5.862-1.213l182.154-78.769
	c5.407-2.338,8.907-7.665,8.907-13.556v-49.231C512,142.953,492.124,123.077,467.692,123.077z"/>
<path style="fill:#753205;" d="M467.692,123.077H256v187.077h59.077c2.016,0,4.011-0.413,5.862-1.213l182.154-78.769
	c5.407-2.338,8.907-7.665,8.907-13.556v-49.231C512,142.953,492.124,123.077,467.692,123.077z"/>
<g>
</g>
<g>
</g>
<g>
</g>
<g>
</g>
<g>
</g>
<g>
</g>
<g>
</g>
<g>
</g>
<g>
</g>
<g>
</g>
<g>
</g>
<g>
</g>
<g>
</g>
<g>
</g>
<g>
</g>
</svg>
